<svg width="auto" height="auto" viewBox="0 0 128 140" fill="none" xmlns="http://www.w3.org/2000/svg">
<title>Kompo</title>
<path d="M53.3096 7.24648C59.6523 3.5845 67.4669 3.58451 73.8096 7.24648L112.369 29.5092C118.712 33.1711 122.619 39.9383 122.619 47.2621V91.7875C122.619 99.1113 118.712 105.878 112.369 109.54L73.8096 131.803C67.4669 135.465 59.6523 135.465 53.3096 131.803L14.75 109.54C8.40746 105.878 4.50014 99.1113 4.50003 91.7875V47.2621C4.50014 39.9383 8.40746 33.1711 14.75 29.5092L53.3096 7.24648Z" stroke="white" stroke-width="9"/>
<path d="M38.3196 34.4208H50.5116V64.8528L78.0636 34.4208H92.6556L62.8956 67.2528L94.5756 101.525H79.9836L50.5116 69.6528V101.525H38.3196V34.4208Z" fill="white"/>
</svg>
